<svg xmlns="http://www.w3.org/2000/svg" data-name="Layer 1" viewBox="0 0 100 100" x="0px" y="0px"><title>icons</title><path d="M74.78,27.5h-.26c-12,0-20.22,9.72-28.17,19.07C39.46,54.67,33,62.32,25.2,62.49a12.49,12.49,0,0,1,.08-25,13.86,13.86,0,0,1,7,2.36,27.43,27.43,0,0,1,2.73,2,5,5,0,1,0,6.34-7.74,37.62,37.62,0,0,0-3.73-2.71,23.54,23.54,0,0,0-12-3.89v0h-.73l-.17,0a22.5,22.5,0,0,0,.13,45h.77v0C37.78,72.09,46.37,62,54,53c6.79-8,13.21-15.54,20.64-15.54h.25a12.5,12.5,0,0,1,0,25h0a14.14,14.14,0,0,1-7.23-2.14,25.3,25.3,0,0,1-2.48-1.67,5,5,0,1,0-6,8A35.05,35.05,0,0,0,62.5,69,24.17,24.17,0,0,0,74.78,72.5h0a22.5,22.5,0,1,0,0-45Z"/><path d="M74.78,27.5h-.26c-12,0-20.22,9.72-28.17,19.07C39.46,54.67,33,62.32,25.2,62.49a12.49,12.49,0,0,1,.08-25,13.86,13.86,0,0,1,7,2.36,27.43,27.43,0,0,1,2.73,2,5,5,0,1,0,6.34-7.74,37.62,37.62,0,0,0-3.73-2.71,23.54,23.54,0,0,0-12-3.89v0h-.73l-.17,0a22.5,22.5,0,0,0,.13,45h.77v0C37.78,72.09,46.37,62,54,53c6.79-8,13.21-15.54,20.64-15.54h.25a12.5,12.5,0,0,1,0,25h0a14.14,14.14,0,0,1-7.23-2.14,25.3,25.3,0,0,1-2.48-1.67,5,5,0,1,0-6,8A35.05,35.05,0,0,0,62.5,69,24.17,24.17,0,0,0,74.78,72.5h0a22.5,22.5,0,1,0,0-45Z"/></svg>
